<mxfile host="app.diagrams.net" agent="Mozilla/5.0 (Windows NT 10.0; Win64; x64) AppleWebKit/537.36 (KHTML, like Gecko) Chrome/130.0.0.0 Safari/537.36" version="24.8.3">
  <diagram name="Page-1" id="dNkhc22jkQrCVvXoA-T7">
    <mxGraphModel grid="1" page="1" gridSize="10" guides="1" tooltips="1" connect="1" arrows="1" fold="1" pageScale="1" pageWidth="850" pageHeight="1100" math="0" shadow="0">
      <root>
        <mxCell id="0" />
        <mxCell id="1" parent="0" />
        <mxCell id="QPUkZC_kvRveKNX7Kwrt-1" value="&lt;b&gt;ECG Sensor&lt;/b&gt;" style="rounded=1;whiteSpace=wrap;html=1;" vertex="1" parent="1">
          <mxGeometry x="120" y="230" width="120" height="60" as="geometry" />
        </mxCell>
        <mxCell id="QPUkZC_kvRveKNX7Kwrt-2" value="" style="rounded=0;whiteSpace=wrap;html=1;dashed=1;" vertex="1" parent="1">
          <mxGeometry x="280" y="200" width="160" height="360" as="geometry" />
        </mxCell>
        <mxCell id="QPUkZC_kvRveKNX7Kwrt-3" value="&lt;b&gt;Wifi Module&lt;/b&gt;" style="rounded=1;whiteSpace=wrap;html=1;" vertex="1" parent="1">
          <mxGeometry x="120" y="390" width="120" height="60" as="geometry" />
        </mxCell>
        <mxCell id="QPUkZC_kvRveKNX7Kwrt-4" value="&lt;b&gt;Sensor Driver&lt;/b&gt;" style="rounded=1;whiteSpace=wrap;html=1;" vertex="1" parent="1">
          <mxGeometry x="300" y="230" width="120" height="60" as="geometry" />
        </mxCell>
        <mxCell id="QPUkZC_kvRveKNX7Kwrt-5" value="&lt;b&gt;Hardware APIs&lt;/b&gt;" style="rounded=1;whiteSpace=wrap;html=1;" vertex="1" parent="1">
          <mxGeometry x="300" y="309.5" width="120" height="60" as="geometry" />
        </mxCell>
        <mxCell id="QPUkZC_kvRveKNX7Kwrt-6" value="&lt;b&gt;Network drivers&lt;/b&gt;" style="rounded=1;whiteSpace=wrap;html=1;" vertex="1" parent="1">
          <mxGeometry x="300" y="390" width="120" height="60" as="geometry" />
        </mxCell>
        <mxCell id="QPUkZC_kvRveKNX7Kwrt-7" value="&lt;b&gt;Signal processing&lt;/b&gt;" style="rounded=1;whiteSpace=wrap;html=1;" vertex="1" parent="1">
          <mxGeometry x="480" y="230" width="120" height="60" as="geometry" />
        </mxCell>
        <mxCell id="QPUkZC_kvRveKNX7Kwrt-8" value="&lt;b&gt;Business logic&lt;/b&gt;" style="rounded=1;whiteSpace=wrap;html=1;" vertex="1" parent="1">
          <mxGeometry x="480" y="470" width="120" height="60" as="geometry" />
        </mxCell>
        <mxCell id="QPUkZC_kvRveKNX7Kwrt-9" value="&lt;b&gt;LED/ Loa&lt;/b&gt;" style="rounded=1;whiteSpace=wrap;html=1;" vertex="1" parent="1">
          <mxGeometry x="120" y="470" width="120" height="60" as="geometry" />
        </mxCell>
        <mxCell id="QPUkZC_kvRveKNX7Kwrt-12" value="" style="endArrow=classic;startArrow=classic;html=1;rounded=0;entryX=0;entryY=0.5;entryDx=0;entryDy=0;" edge="1" parent="1" target="QPUkZC_kvRveKNX7Kwrt-8">
          <mxGeometry width="50" height="50" relative="1" as="geometry">
            <mxPoint x="420" y="419.81" as="sourcePoint" />
            <mxPoint x="460" y="419.81" as="targetPoint" />
            <Array as="points">
              <mxPoint x="420" y="420" />
              <mxPoint x="450" y="420" />
              <mxPoint x="450" y="500" />
            </Array>
          </mxGeometry>
        </mxCell>
        <mxCell id="QPUkZC_kvRveKNX7Kwrt-13" value="" style="endArrow=classic;startArrow=classic;html=1;rounded=0;entryX=0;entryY=0.5;entryDx=0;entryDy=0;" edge="1" parent="1">
          <mxGeometry width="50" height="50" relative="1" as="geometry">
            <mxPoint x="240" y="419.81" as="sourcePoint" />
            <mxPoint x="300" y="420" as="targetPoint" />
            <Array as="points">
              <mxPoint x="240" y="420" />
            </Array>
          </mxGeometry>
        </mxCell>
        <mxCell id="QPUkZC_kvRveKNX7Kwrt-31" value="&lt;b&gt;Device drivers&lt;/b&gt;" style="rounded=1;whiteSpace=wrap;html=1;" vertex="1" parent="1">
          <mxGeometry x="300" y="470" width="120" height="60" as="geometry" />
        </mxCell>
        <mxCell id="QPUkZC_kvRveKNX7Kwrt-32" value="&lt;b&gt;Postprocessing&lt;/b&gt;" style="rounded=1;whiteSpace=wrap;html=1;" vertex="1" parent="1">
          <mxGeometry x="480" y="390" width="120" height="60" as="geometry" />
        </mxCell>
        <mxCell id="QPUkZC_kvRveKNX7Kwrt-33" value="&lt;b&gt;RNN Model&lt;/b&gt;" style="rounded=1;whiteSpace=wrap;html=1;" vertex="1" parent="1">
          <mxGeometry x="480" y="309.5" width="120" height="60" as="geometry" />
        </mxCell>
        <mxCell id="QPUkZC_kvRveKNX7Kwrt-35" value="" style="endArrow=classic;startArrow=classic;html=1;rounded=0;entryX=0;entryY=0.5;entryDx=0;entryDy=0;" edge="1" parent="1">
          <mxGeometry width="50" height="50" relative="1" as="geometry">
            <mxPoint x="420" y="339.23" as="sourcePoint" />
            <mxPoint x="480" y="339.42" as="targetPoint" />
            <Array as="points">
              <mxPoint x="420" y="339.42" />
            </Array>
          </mxGeometry>
        </mxCell>
        <mxCell id="QPUkZC_kvRveKNX7Kwrt-36" value="" style="endArrow=classic;html=1;rounded=0;exitX=0;exitY=0.75;exitDx=0;exitDy=0;entryX=1;entryY=0.75;entryDx=0;entryDy=0;" edge="1" parent="1" source="QPUkZC_kvRveKNX7Kwrt-8" target="QPUkZC_kvRveKNX7Kwrt-31">
          <mxGeometry width="50" height="50" relative="1" as="geometry">
            <mxPoint x="370" y="560" as="sourcePoint" />
            <mxPoint x="420" y="510" as="targetPoint" />
          </mxGeometry>
        </mxCell>
        <mxCell id="QPUkZC_kvRveKNX7Kwrt-37" value="" style="endArrow=classic;html=1;rounded=0;exitX=0;exitY=0.75;exitDx=0;exitDy=0;entryX=1;entryY=0.75;entryDx=0;entryDy=0;" edge="1" parent="1">
          <mxGeometry width="50" height="50" relative="1" as="geometry">
            <mxPoint x="240" y="259.63" as="sourcePoint" />
            <mxPoint x="300" y="259.63" as="targetPoint" />
          </mxGeometry>
        </mxCell>
        <mxCell id="QPUkZC_kvRveKNX7Kwrt-40" value="" style="endArrow=classic;html=1;rounded=0;exitX=0;exitY=0.75;exitDx=0;exitDy=0;entryX=1;entryY=0.75;entryDx=0;entryDy=0;" edge="1" parent="1">
          <mxGeometry width="50" height="50" relative="1" as="geometry">
            <mxPoint x="300" y="500" as="sourcePoint" />
            <mxPoint x="240" y="500" as="targetPoint" />
          </mxGeometry>
        </mxCell>
        <mxCell id="QPUkZC_kvRveKNX7Kwrt-42" value="" style="endArrow=classic;html=1;rounded=0;exitX=0;exitY=0.75;exitDx=0;exitDy=0;entryX=1;entryY=0.75;entryDx=0;entryDy=0;" edge="1" parent="1">
          <mxGeometry width="50" height="50" relative="1" as="geometry">
            <mxPoint x="420" y="259.77" as="sourcePoint" />
            <mxPoint x="480" y="259.77" as="targetPoint" />
          </mxGeometry>
        </mxCell>
        <mxCell id="QPUkZC_kvRveKNX7Kwrt-43" value="" style="endArrow=classic;html=1;rounded=0;entryX=1;entryY=0.25;entryDx=0;entryDy=0;" edge="1" parent="1" target="QPUkZC_kvRveKNX7Kwrt-33">
          <mxGeometry width="50" height="50" relative="1" as="geometry">
            <mxPoint x="600" y="260" as="sourcePoint" />
            <mxPoint x="650" y="210" as="targetPoint" />
            <Array as="points">
              <mxPoint x="620" y="260" />
              <mxPoint x="620" y="325" />
            </Array>
          </mxGeometry>
        </mxCell>
        <mxCell id="QPUkZC_kvRveKNX7Kwrt-44" value="" style="endArrow=classic;html=1;rounded=0;entryX=1;entryY=0.25;entryDx=0;entryDy=0;" edge="1" parent="1">
          <mxGeometry width="50" height="50" relative="1" as="geometry">
            <mxPoint x="600" y="340" as="sourcePoint" />
            <mxPoint x="600" y="405" as="targetPoint" />
            <Array as="points">
              <mxPoint x="620" y="340" />
              <mxPoint x="620" y="405" />
            </Array>
          </mxGeometry>
        </mxCell>
        <mxCell id="QPUkZC_kvRveKNX7Kwrt-45" value="" style="endArrow=classic;html=1;rounded=0;entryX=1;entryY=0.25;entryDx=0;entryDy=0;" edge="1" parent="1">
          <mxGeometry width="50" height="50" relative="1" as="geometry">
            <mxPoint x="600" y="430" as="sourcePoint" />
            <mxPoint x="600" y="495" as="targetPoint" />
            <Array as="points">
              <mxPoint x="620" y="430" />
              <mxPoint x="620" y="495" />
            </Array>
          </mxGeometry>
        </mxCell>
        <mxCell id="QPUkZC_kvRveKNX7Kwrt-46" value="" style="rounded=0;whiteSpace=wrap;html=1;fillColor=none;" vertex="1" parent="1">
          <mxGeometry x="455" y="200" width="170" height="360" as="geometry" />
        </mxCell>
        <mxCell id="QPUkZC_kvRveKNX7Kwrt-47" value="Application Loop" style="text;html=1;align=center;verticalAlign=middle;resizable=0;points=[];autosize=1;strokeColor=none;fillColor=none;fontStyle=1" vertex="1" parent="1">
          <mxGeometry x="480" y="170" width="110" height="30" as="geometry" />
        </mxCell>
        <mxCell id="QPUkZC_kvRveKNX7Kwrt-48" value="Deice Firmware" style="text;html=1;align=center;verticalAlign=middle;resizable=0;points=[];autosize=1;strokeColor=none;fillColor=none;fontStyle=1" vertex="1" parent="1">
          <mxGeometry x="300" y="170" width="110" height="30" as="geometry" />
        </mxCell>
        <mxCell id="QPUkZC_kvRveKNX7Kwrt-50" value="" style="rounded=1;whiteSpace=wrap;html=1;fillColor=none;strokeWidth=2;" vertex="1" parent="1">
          <mxGeometry x="90" y="159.5" width="560" height="430.5" as="geometry" />
        </mxCell>
      </root>
    </mxGraphModel>
  </diagram>
</mxfile>
